<?xml version="1.0" encoding="UTF-8" standalone="no"?>
<svg
   xmlns:dc="http://purl.org/dc/elements/1.1/"
   xmlns:cc="http://creativecommons.org/ns#"
   xmlns:rdf="http://www.w3.org/1999/02/22-rdf-syntax-ns#"
   xmlns:svg="http://www.w3.org/2000/svg"
   xmlns="http://www.w3.org/2000/svg"
   width="100"
   height="100"
   fill="currentColor"
   class="bi bi-play-fill"
   viewBox="0 0 100 100"
   version="1.1"
   id="svg853">
  <path
     id="path870"
     style="fill:#ffffff;fill-opacity:1;stroke:none;"
     d="M 49.955078 13.175781 A 36.602303 36.602303 0 0 0 13.359375 49.777344 A 36.602303 36.602303 0 0 0 49.962891 86.378906 A 36.602303 36.602303 0 0 0 86.564453 49.777344 A 36.602303 36.602303 0 0 0 49.962891 13.175781 A 36.602303 36.602303 0 0 0 49.955078 13.175781 z M 40.058594 33 C 42.861467 33 45.119141 36.120929 45.119141 39.998047 L 45.119141 59.166016 C 45.119141 63.043134 42.861467 66.164062 40.058594 66.164062 C 37.255721 66.164062 35 63.043134 35 59.166016 L 35 39.998047 C 35 36.120929 37.255721 33 40.058594 33 z M 60.058594 33 C 62.861467 33 65.119141 36.120929 65.119141 39.998047 L 65.119141 59.166016 C 65.119141 63.043134 62.861467 66.164062 60.058594 66.164062 C 57.255721 66.164062 55 63.043134 55 59.166016 L 55 39.998047 C 55 36.120929 57.255721 33 60.058594 33 z " />
</svg>
