<?xml version="1.0" encoding="UTF-8" standalone="no"?>
<svg
   xmlns:dc="http://purl.org/dc/elements/1.1/"
   xmlns:cc="http://creativecommons.org/ns#"
   xmlns:rdf="http://www.w3.org/1999/02/22-rdf-syntax-ns#"
   xmlns:svg="http://www.w3.org/2000/svg"
   xmlns="http://www.w3.org/2000/svg"
   width="100"
   height="100"
   fill="currentColor"
   viewBox="0 0 100 100"
   version="1.1"
   id="svg853">
  <path
     id="path870"
     style="fill:#ffffff;fill-opacity:1;stroke:none;"
     d="M 49.962415,13.174749 C 29.765644,13.198867 13.360847,29.578606 13.359375,49.775391 13.35869,69.972939 29.718483,86.353709 49.916016,86.378906 70.113592,86.404425 86.514483,70.064718 86.564453,49.867188 86.613758,29.670333 70.159192,13.24946 49.962415,13.174749 l 0.04344,24.840876 15.267579,8.857422 c 2.185166,1.247923 2.185166,4.398561 0,5.646484 L 39.478516,67.486328 c -2.189085,1.268858 -4.998047,-0.268186 -4.998047,-2.826172 V 34.726562 c 0,-2.553932 2.804909,-4.093224 4.998047,-2.820312 l 10.470703,6.074219 z m -0.0132,24.80572 c 0.01771,14.696146 0.0024,14.878424 0.05664,0.03516 z" />
</svg>
